<svg width="72" height="16" viewBox="0 0 72 16" fill="none" xmlns="http://www.w3.org/2000/svg">
<path d="M48.8536 5.53809H43.9314V15.9983H48.8536V5.53809Z" fill="#410CE5"/>
<path d="M15.0778 0V4.92385H0.309624V2.46192C0.309624 1.10293 1.41255 0 2.77155 0H15.0778Z" fill="#410CE5"/>
<path d="M20.5741 0.00165176V4.92383L36.0351 4.92383V0.00165176L20.5741 0.00165176Z" fill="#410CE5"/>
<path d="M39.0075 9.05991e-06V4.92218L53.7757 4.92218V9.05991e-06L39.0075 9.05991e-06Z" fill="#410CE5"/>
<path d="M66.7665 5.53809H61.8444V15.9983H66.7665V5.53809Z" fill="#410CE5"/>
<path d="M56.9222 0.00165701V4.92383L71.6904 4.92383V0.00165701L56.9222 0.00165701Z" fill="#410CE5"/>
<path d="M18.1439 5.53974V10.4619L32.9121 10.4619V5.53974L18.1439 5.53974Z" fill="#410CE5"/>
<path d="M0.309624 5.53974L0.309624 10.4619H5.21841V5.53974H0.309624Z" fill="#410CE5"/>
<path d="M20.5741 11.0778V16H36.0351V11.0778H20.5741Z" fill="#410CE5"/>
<path d="M15.0778 11.0761V16H2.77155C1.41255 16 0.309624 14.8971 0.309624 13.5381V11.0761H15.0778Z" fill="#410CE5"/>
</svg>
